<svg width="100.000000" height="99.999969" viewBox="0 0 100 100" fill="none" xmlns="http://www.w3.org/2000/svg" xmlns:xlink="http://www.w3.org/1999/xlink">
	<desc>
			Created with Pixso.
	</desc>
	<defs>
		<clipPath id="clip282_31529">
			<rect id="画板 1773" width="99.999992" height="99.999977" fill="white" fill-opacity="0"/>
		</clipPath>
		<radialGradient gradientTransform="translate(67.5526 65.1155) rotate(51.0683) scale(22.991 20.6919)" cx="0.000000" cy="0.000000" r="1.000000" id="paint_radial_282_31521_0" gradientUnits="userSpaceOnUse">
			<stop stop-color="#5ADDF8"/>
			<stop stop-color="#AEBFFF"/>
			<stop offset="0.329153" stop-color="#1476FF"/>
			<stop offset="0.667785" stop-color="#655AF8"/>
			<stop offset="0.868255" stop-color="#948CFF"/>
			<stop offset="1.000000" stop-color="#D25AF8"/>
			<stop offset="1.000000" stop-color="#5A8BF8"/>
		</radialGradient>
		<linearGradient x1="69.000122" y1="85.000145" x2="69.500107" y2="70.500130" id="paint_linear_282_31522_0" gradientUnits="userSpaceOnUse">
			<stop stop-color="#000000" stop-opacity="0.000000"/>
			<stop offset="1.000000" stop-color="#000000"/>
		</linearGradient>
		<radialGradient gradientTransform="translate(26.9999 24.7117) rotate(38.3656) scale(77.7996 109.496)" cx="0.000000" cy="0.000000" r="1.000000" id="paint_radial_282_31524_0" gradientUnits="userSpaceOnUse">
			<stop stop-color="#5ADDF8"/>
			<stop stop-color="#AEBFFF"/>
			<stop offset="0.329153" stop-color="#1476FF"/>
			<stop offset="0.667785" stop-color="#655AF8"/>
			<stop offset="0.868255" stop-color="#948CFF"/>
			<stop offset="1.000000" stop-color="#D25AF8"/>
			<stop offset="1.000000" stop-color="#5A8BF8"/>
		</radialGradient>
	</defs>
	<rect id="画板 1773" width="99.999992" height="99.999977" fill="#FFFFFF" fill-opacity="0"/>
	<g clip-path="url(#clip282_31529)">
		<rect id="矩形 1" rx="22.000000" width="100.000000" height="100.000000" fill="#FFFFFF" fill-opacity="1.000000"/>
		<path id="矢量 1" d="M64.07 81.01L64 63L82 63.07L67.52 82.23C66.39 83.71 64.07 82.9 64.07 81.01Z" fill="url(#paint_radial_282_31521_0)" fill-opacity="1.000000" fill-rule="evenodd"/>
		<path id="矢量 1" d="" fill="#000000" fill-opacity="0" fill-rule="evenodd"/>
		<g opacity="0.100000" style="mix-blend-mode:normal">
			<path id="矢量 1" d="M64.07 81.01L64 63L82 63.07L67.52 82.23C66.39 83.71 64.07 82.9 64.07 81.01Z" fill="url(#paint_linear_282_31522_0)" fill-opacity="1.000000" fill-rule="evenodd"/>
		</g>
		<rect id="矩形 5" x="12.000000" y="19.000122" rx="27.000000" width="76.000000" height="54.000000" fill="url(#paint_radial_282_31524_0)" fill-opacity="1.000000"/>
		<rect id="矩形 5" x="12.500000" y="19.500122" rx="26.500000" width="75.000000" height="53.000000" stroke="#000000" stroke-opacity="0" stroke-width="1.000000"/>
		<path id="path" d="M54.61 59.06C55.78 60.05 57.1 60.66 58.57 60.89C60.05 61.12 61.43 61.04 62.72 60.65C64 60.26 65.96 58.58 65.96 58.58C65.96 58.58 70.98 54.73 70.98 45.61C70.98 36.5 66.5 32.5 66.5 32.5C66.5 32.5 65.28 31.31 63.5 31C61.71 30.68 60.57 30.98 59.34 31.33C49.11 34.23 37.62 34.33 27.42 31.33C26.19 30.98 25.09 30.93 24.11 31.17C23.13 31.42 22.29 31.89 21.58 32.59C18.35 35.81 17.13 41.06 17 45.61C16.88 50.09 18.03 55.24 21.06 58.54C21.96 59.52 23.02 60.22 24.22 60.63C25.41 61.04 26.68 61.12 28.01 60.89C29.34 60.66 30.52 60.05 31.54 59.06C31.98 58.62 32.61 58.07 33.43 57.4C34.24 56.73 35.17 56.08 36.21 55.44C37.25 54.8 38.38 54.25 39.61 53.8C40.84 53.35 42.09 53.13 43.38 53.13C44.64 53.13 45.84 53.36 47 53.83C48.15 54.29 49.21 54.84 50.18 55.48C51.14 56.12 52 56.78 52.74 57.45C53.49 58.11 54.11 58.65 54.61 59.06Z" fill="#FFFFFF" fill-opacity="1.000000" fill-rule="nonzero"/>
		<rect id="矩形 840" x="58.016602" y="39.000000" rx="2.000000" width="4.000000" height="12.000000" transform="rotate(1.39597 58.016602 39.000000)" fill="#1476FF" fill-opacity="1.000000"/>
		<path id="合并" d="M28.9785 39.0013C28.1709 38.9779 27.3828 39.4229 27.0137 40.1905L23.2041 48.1147C22.7129 49.1377 23.1523 50.3464 24.1865 50.8144C25.2207 51.2823 26.457 50.8324 26.9492 49.8094L28.9727 45.5995L30.9961 49.8102C31.4873 50.8333 32.7246 51.2834 33.7588 50.8154C34.793 50.3474 35.2324 49.1387 34.7412 48.1156L30.9336 40.1909C30.5654 39.4264 29.7822 38.9819 28.9785 39.0013Z" clip-rule="evenodd" fill="#1476FF" fill-opacity="1.000000" fill-rule="evenodd"/>
	</g>
</svg>
